<svg xmlns="http://www.w3.org/2000/svg" xmlns:xlink="http://www.w3.org/1999/xlink" fill="none" version="1.1" width="24" height="24" viewBox="0 0 24 24"><defs><clipPath id="master_svg0_3_58"><rect x="0" y="0" width="24" height="24" rx="0"/></clipPath></defs><g clip-path="url(#master_svg0_3_58)"><g><path d="M17.500011069869995,6.25001L17.500011069869995,11.25C17.500011069869995,14.2875,15.037511069869995,16.75,12.000001069869995,16.75C8.962501069869994,16.75,6.499991069869996,14.2875,6.499991069869996,11.25L6.499991069869996,6.25001C6.499991069869996,3.21251,8.962501069869994,0.75,12.000001069869995,0.75C15.037511069869995,0.75,17.500011069869995,3.21251,17.500011069869995,6.25001ZM7.999991069869995,6.25001L7.999991069869995,11.25C7.999991069869995,13.4591,9.790861069869994,15.25,12.000001069869995,15.25C14.209111069869994,15.25,16.000011069869995,13.4591,16.000011069869995,11.25L16.000011069869995,6.25001C16.000011069869995,4.04086,14.209111069869994,2.25,12.000001069869995,2.25C9.790861069869994,2.25,7.999991069869995,4.04086,7.999991069869995,6.25001ZM20.317511069869994,11.2515C20.729811069869996,11.2888,21.034011069869994,11.6531,20.997011069869995,12.0655C20.602511069869994,16.435499999999998,17.093511069869997,19.8625,12.750001069869995,20.2195L12.750001069869995,22.5C12.750001069869995,22.9142,12.414211069869996,23.25,12.000001069869995,23.25C11.585791069869995,23.25,11.250001069869995,22.9142,11.250001069869995,22.5L11.250001069869995,20.2195C6.907011069869995,19.8625,3.3979940698699953,16.435499999999998,3.003002169869995,12.0665C2.9657230698699952,11.6539,3.269946069869995,11.2893,3.682502069869995,11.252C4.095061069869995,11.2147,4.459721069869995,11.5189,4.497001069869995,11.9315C4.844511069869995,15.777,8.093511069869995,18.75,12.000001069869995,18.75C15.907011069869995,18.75,19.156011069869994,15.7765,19.503011069869995,11.931C19.537711069869996,11.5464,19.858811069869994,11.251,20.245011069869996,11.2485L20.317511069869994,11.2515Z" fill="#111111" fill-opacity="1"/></g></g></svg>