<svg xmlns="http://www.w3.org/2000/svg" xmlns:xlink="http://www.w3.org/1999/xlink" fill="none" version="1.1" width="24" height="24" viewBox="0 0 24 24"><defs><clipPath id="master_svg0_3_38"><rect x="0" y="0" width="24" height="24" rx="0"/></clipPath></defs><g clip-path="url(#master_svg0_3_38)"><g><path d="M21.99999213218689,11.99999213218689C21.99999213218689,17.52299213218689,17.52299213218689,21.99999213218689,11.99999213218689,21.99999213218689C6.47700213218689,21.99999213218689,1.9999921321868896,17.52299213218689,1.9999921321868896,11.99999213218689C1.9999921321868896,6.47700213218689,6.47700213218689,1.9999921321868896,11.99999213218689,1.9999921321868896C17.52299213218689,1.9999921321868896,21.99999213218689,6.47700213218689,21.99999213218689,11.99999213218689ZM11.99999213218689,3.4999921321868896C7.30549213218689,3.4999921321868896,3.4999921321868896,7.30549213218689,3.4999921321868896,11.99999213218689C3.4999921321868896,16.694492132186888,7.30549213218689,20.49999213218689,11.99999213218689,20.49999213218689C16.694492132186888,20.49999213218689,20.49999213218689,16.694492132186888,20.49999213218689,11.99999213218689C20.49999213218689,7.30549213218689,16.694492132186888,3.4999921321868896,11.99999213218689,3.4999921321868896ZM11.99999213218689,14.56999213218689C12.94049213218689,14.57069213218689,13.80949213218689,14.06779213218689,14.27749213218689,13.25199213218689C14.48719213218689,12.89989213218689,14.94069213218689,12.78119213218689,15.295992132186889,12.98559213218689C15.651192132186889,13.18999213218689,15.77659213218689,13.64169213218689,15.57749213218689,13.99999213218689C14.84189213218689,15.28109213218689,13.47719213218689,16.070692132186892,11.99999213218689,16.06999213218689C10.522112132186889,16.070792132186888,9.15685213218689,15.28049213218689,8.42149213218689,13.99849213218689C8.21542213218689,13.63939213218689,8.33930213218689,13.18129213218689,8.69825213218689,12.97499213218689C9.057202132186891,12.768592132186889,9.51543213218689,12.89219213218689,9.721992132186891,13.250992132186889C10.18972213218689,14.06759213218689,11.05897213218689,14.57109213218689,11.99999213218689,14.56999213218689L11.99999213218689,14.56999213218689Z" fill="#111111" fill-opacity="1"/></g></g></svg>