<svg xmlns="http://www.w3.org/2000/svg" xmlns:xlink="http://www.w3.org/1999/xlink" fill="none" version="1.1" width="24" height="24" viewBox="0 0 24 24"><defs><clipPath id="master_svg0_3_30"><rect x="0" y="0" width="24" height="24" rx="0"/></clipPath></defs><g clip-path="url(#master_svg0_3_30)"><g><path d="M12.624995594024659,7.41648786781311C12.624995594024659,8.22198786781311,12.495495594024659,8.99298786781311,12.236995594024659,9.72899786781311C12.002895594024658,10.40635786781311,11.652695594024658,11.03778786781311,11.201995594024659,11.59499786781311C10.760495594024658,12.13698786781311,10.258495594024659,12.56000786781311,9.694995594024657,12.86500786781311C9.694995594024657,12.86500786781311,9.683995594024658,12.87100786781311,9.683995594024658,12.87100786781311C10.506005594024659,13.079007867813111,11.288995594024659,13.43300786781311,12.033995594024658,13.93400786781311C13.264495594024659,14.76150786781311,14.149995594024658,15.82050786781311,14.689995594024658,17.110507867813112C15.223995594024657,18.38750786781311,15.276495594024658,19.45950786781311,14.846495594024658,20.327007867813112C14.641695594024657,20.74890786781311,14.311495594024658,21.09710786781311,13.900995594024659,21.324007867813112C13.512495594024658,21.54150786781311,13.073995594024659,21.65000786781311,12.585495594024659,21.65000786781311L3.1684955940246584,21.65000786781311C2.679985594024658,21.65000786781311,2.2414955940246584,21.54150786781311,1.8535055940246583,21.324007867813112C1.4428445940246584,21.09720786781311,1.1123975940246582,20.74900786781311,0.9074995940246582,20.327007867813112C0.4774925940246582,19.45950786781311,0.5299921940246582,18.38700786781311,1.0639925940246582,17.110507867813112C1.6039925940246582,15.82050786781311,2.488995594024658,14.76150786781311,3.7199955940246583,13.93400786781311C4.463505594024658,13.43400786781311,5.2459955940246585,13.07950786781311,6.067005594024658,12.87200786781311C6.067005594024658,12.87200786781311,6.055005594024658,12.86500786781311,6.055005594024658,12.86500786781311C5.491495594024658,12.56000786781311,4.989515594024658,12.13701786781311,4.548495594024658,11.59499786781311C4.097805594024658,11.03778786781311,3.7475755940246582,10.40635786781311,3.513495594024658,9.72899786781311C3.2533655940246584,8.98587786781311,3.1219755940246583,8.203817867813111,3.124995594024658,7.41648786781311C3.124995594024658,6.01949786781311,3.566485594024658,4.85549786781311,4.448995594024659,3.92500786781311C5.350495594024658,2.9749918678131104,6.492495594024658,2.5000078678131104,7.874995594024658,2.5000078678131104C9.257505594024659,2.5000078678131104,10.399995594024658,2.9750158678131102,11.300995594024657,3.92500786781311C12.183495594024658,4.85549786781311,12.624995594024659,6.01949786781311,12.624995594024659,7.41648786781311ZM4.624995594024658,7.41648786781311C4.624995594024658,8.68049786781311,4.987495594024658,9.75798786781311,5.711995594024658,10.64800786781311C6.027495594024658,11.03601786781311,6.379995594024658,11.33549786781311,6.769005594024658,11.54598786781311C7.139505594024659,11.746987867813111,7.508505594024658,11.84699786781311,7.874995594024658,11.84699786781311C8.24149559402466,11.84699786781311,8.609995594024658,11.746987867813111,8.980995594024659,11.54598786781311C9.369985594024659,11.33549786781311,9.722485594024658,11.03598786781311,10.038495594024658,10.64800786781311C10.762995594024659,9.758017867813109,11.124995594024659,8.68049786781311,11.124995594024659,7.41648786781311C11.124995594024659,6.41798786781311,10.820995594024659,5.598487867813111,10.212495594024658,4.95749786781311C9.607495594024659,4.31898786781311,8.827495594024658,4.00000786781311,7.874995594024658,4.00000786781311C6.922005594024658,4.00000786781311,6.142995594024658,4.319017867813111,5.537505594024658,4.95749786781311C4.928995594024658,5.598487867813111,4.625015594024658,6.4180078678131105,4.624995594024658,7.41648786781311ZM17.62699559402466,6.182997867813111C18.65499559402466,6.182997867813111,19.50499559402466,6.536997867813111,20.17749559402466,7.24499786781311C20.83449559402466,7.93649786781311,21.16249559402466,8.79798786781311,21.16249559402466,9.830507867813111C21.16249559402466,11.01149786781311,20.81499559402466,12.02800786781311,20.119995594024658,12.88050786781311C19.853695594024657,13.21270786781311,19.533195594024658,13.49750786781311,19.171995594024658,13.723007867813111C19.855495594024656,13.92600786781311,20.511995594024658,14.26750786781311,21.141495594024658,14.74750786781311C22.17149559402466,15.53300786781311,22.84999559402466,16.46050786781311,23.178495594024657,17.53000786781311C23.514995594024658,18.62700786781311,23.434495594024657,19.52300786781311,22.93699559402466,20.21800786781311C22.44399559402466,20.90600786781311,21.65899559402466,21.25000786781311,20.58149559402466,21.25000786781311L17.12399559402466,21.25000786781311C16.70979559402466,21.25000786781311,16.373995594024656,20.91420786781311,16.373995594024656,20.50000786781311C16.373995594024656,20.08580786781311,16.70979559402466,19.75000786781311,17.12399559402466,19.75000786781311L20.58149559402466,19.75000786781311C21.144995594024657,19.75000786781311,21.52349559402466,19.61500786781311,21.71749559402466,19.34500786781311C21.926995594024657,19.05200786781311,21.935995594024657,18.59400786781311,21.74449559402466,17.97000786781311C21.510495594024658,17.20750786781311,21.005995594024657,16.53100786781311,20.231495594024658,15.94000786781311C19.409995594024657,15.31350786781311,18.54149559402466,15.00000786781311,17.62699559402466,15.00000786781311C17.135495594024658,15.00000786781311,16.64399559402466,15.09850786781311,16.15199559402466,15.29500786781311C16.06639559402466,15.32940786781311,15.975195594024658,15.34770786781311,15.882995594024658,15.34900786781311L15.872995594024658,15.34900786781311C15.459795594024659,15.34900786781311,15.124395594024659,15.01470786781311,15.122995594024658,14.60150786781311L15.122995594024658,14.59900786781311C15.122995594024658,14.29210786781311,15.309995594024658,14.01620786781311,15.594995594024658,13.90250786781311C15.759995594024659,13.83650786781311,15.924995594024658,13.77850786781311,16.091495594024657,13.72850786781311C15.726495594024659,13.50240786781311,15.402695594024658,13.21580786781311,15.133995594024658,12.88100786781311C14.438995594024659,12.02797786781311,14.091495594024659,11.01097786781311,14.091495594024659,9.830507867813111C14.091495594024659,8.79800786781311,14.419495594024658,7.93600786781311,15.076495594024658,7.24499786781311C15.748995594024658,6.536997867813111,16.598995594024657,6.182997867813111,17.62699559402466,6.182997867813111L17.62699559402466,6.182997867813111ZM17.62699559402466,7.682997867813111C17.02849559402466,7.682997867813111,16.54049559402466,7.88148786781311,16.16399559402466,8.278007867813109C15.781995594024659,8.68000786781311,15.591495594024659,9.19750786781311,15.591495594024659,9.830507867813111C15.591495594024659,10.65550786781311,15.826495594024658,11.356497867813111,16.29649559402466,11.932987867813111C16.703995594024658,12.432987867813111,17.147495594024658,12.68300786781311,17.626495594024657,12.68300786781311C18.106495594024658,12.68300786781311,18.54949559402466,12.432987867813111,18.957495594024657,11.932987867813111C19.42749559402466,11.356497867813111,19.66249559402466,10.655487867813111,19.66249559402466,9.830507867813111C19.66249559402466,9.19750786781311,19.47199559402466,8.68000786781311,19.089995594024657,8.278007867813109C18.713495594024657,7.88151786781311,18.225495594024657,7.682997867813111,17.62699559402466,7.682997867813111ZM13.305995594024658,17.690007867813108C12.881995594024659,16.67650786781311,12.178995594024657,15.83950786781311,11.196995594024658,15.17900786781311C10.177005594024658,14.49350786781311,9.070495594024658,14.15050786781311,7.876995594024658,14.15050786781311C6.683485594024658,14.15050786781311,5.576995594024658,14.49350786781311,4.556995594024658,15.17900786781311C3.5749955940246583,15.83900786781311,2.872005594024658,16.67650786781311,2.4479955940246585,17.690007867813108C2.089995594024658,18.54600786781311,2.0245055940246584,19.20300786781311,2.251495594024658,19.66100786781311C2.413005594024658,19.98750786781311,2.719005594024658,20.15050786781311,3.1684955940246584,20.15050786781311L12.585495594024659,20.15050786781311C13.035495594024658,20.15050786781311,13.340495594024658,19.98750786781311,13.502495594024658,19.66100786781311C13.729495594024659,19.20300786781311,13.664495594024658,18.54600786781311,13.305995594024658,17.690007867813108Z" fill="#111111" fill-opacity="1"/></g></g></svg>