<svg xmlns="http://www.w3.org/2000/svg" xmlns:xlink="http://www.w3.org/1999/xlink" fill="none" version="1.1" width="24" height="24" viewBox="0 0 24 24"><defs><clipPath id="master_svg0_3_22"><rect x="0" y="0" width="24" height="24" rx="0"/></clipPath></defs><g clip-path="url(#master_svg0_3_22)"><g><path d="M13.762044680023193,3.737999550323486C14.933544680023193,2.5665255503234863,16.832944680023193,2.5665255503234863,18.004544680023194,3.737999550323486L22.600944680023193,8.334494550323488C23.77244468002319,9.506054550323487,23.77244468002319,11.405444550323486,22.600944680023193,12.577004550323487L20.833044680023193,14.344494550323486L20.303544680023194,14.876994550323486L19.170444680023195,16.006994550323487L18.903044680023193,16.27449455032349C18.845044680023193,16.343994550323487,18.783944680023193,16.410894550323487,18.720044680023193,16.474994550323487L14.123544680023194,21.071494550323486C12.951944680023193,22.242994550323488,11.052544680023193,22.242994550323488,9.880994680023193,21.071494550323486L1.3960086800231934,12.586504550323486C0.22418968002319334,11.414884550323487,0.22418968002319334,9.515104550323485,1.3960086800231934,8.343494550323486L5.992004680023193,3.7470005503234862C7.163564680023193,2.575525550323486,9.062944680023193,2.575525550323486,10.234504680023193,3.7470005503234862L11.993544680023193,5.506504550323486L13.762044680023193,3.737999550323486ZM13.054544680023193,6.567004550323486L9.524994680023193,10.096504550323488C8.988494680023193,10.632494550323486,8.988004680023193,10.984504550323486,9.519494680023193,11.516504550323486C10.156494680023194,12.153004550323486,10.966544680023194,12.425504550323486,11.972544680023192,12.043994550323486C12.400544680023193,11.881504550323486,13.147544680023193,11.325494550323487,14.149944680023193,10.391504550323486C14.937744680023194,9.657424550323487,16.165244680023193,9.678404550323485,16.927544680023193,10.438994550323486L19.772544680023195,13.283994550323486L21.540044680023193,11.515994550323486C22.101444680023192,10.954434550323485,22.127944680023194,10.052584550323488,21.600444680023195,9.459004550323487L21.540444680023192,9.394994550323485L16.944044680023193,4.798504550323486C16.358144680023194,4.2125945503234865,15.408344680023193,4.2125945503234865,14.822544680023194,4.798504550323486L13.054544680023193,6.567004550323486ZM15.847044680023194,11.480994550323487C15.670244680023194,11.323134550323486,15.406944680023193,11.311024550323486,15.216444680023193,11.452004550323487L15.172544680023194,11.488994550323486C14.035044680023192,12.547994550323486,13.166544680023193,13.195494550323486,12.504444680023193,13.446494550323486C10.874444680023194,14.064494550323486,9.475994680023193,13.594494550323486,8.458504680023193,12.576494550323487C7.3405046800231935,11.458494550323486,7.343504680023194,10.156494550323487,8.464494680023193,9.035504550323488L10.933044680023194,6.566994550323486L9.173994680023194,4.807994550323486C8.588194680023193,4.222094550323487,7.638314680023194,4.222094550323487,7.052504680023193,4.807994550323486L2.456504680023193,9.403994550323485C1.8705946800231934,9.989804550323488,1.8705946800231934,10.939694550323486,2.456504680023193,11.525504550323486L10.941444680023194,20.010494550323486C11.527344680023193,20.596394550323485,12.477244680023194,20.596394550323485,13.063044680023193,20.010494550323486L13.593044680023194,19.480494550323485L11.825544680023194,17.712494550323484C11.523844680023194,17.421194550323484,11.519644680023193,16.939194550323485,11.816144680023193,16.642694550323487C12.112644680023193,16.34619455032349,12.594744680023194,16.350394550323486,12.886044680023193,16.651994550323487L14.653944680023193,18.419494550323485L16.068044680023192,17.005494550323487L14.300544680023194,15.237494550323486C13.993544680023193,14.947194550323486,13.986844680023193,14.460794550323486,14.285644680023193,14.162194550323486C14.584444680023193,13.863494550323486,15.070844680023193,13.870394550323486,15.361044680023193,14.177494550323486L17.128944680023192,15.944494550323487L17.659044680023193,15.414494550323486C18.244944680023192,14.828694550323487,18.244944680023192,13.878794550323486,17.659044680023193,13.292994550323487L15.847044680023194,11.480994550323487Z" fill="#111111" fill-opacity="1"/></g></g></svg>