<svg xmlns="http://www.w3.org/2000/svg" xmlns:xlink="http://www.w3.org/1999/xlink" fill="none" version="1.1" width="24" height="24" viewBox="0 0 24 24"><defs><clipPath id="master_svg0_3_34"><rect x="0" y="0" width="24" height="24" rx="0"/></clipPath></defs><g clip-path="url(#master_svg0_3_34)"><g><path d="M4.320002370605469,6.928501068878174L10.177502370605469,2.449992068878174C11.253222370605469,1.6272710688781737,12.746772370605468,1.6272710688781737,13.822492370605469,2.449992068878174L19.67999237060547,6.928991068878174C20.669592370605468,7.685721068878173,21.24999237060547,8.860491068878174,21.24999237060547,10.106511068878174L21.24999237060547,18.250051068878175C21.24999237060547,19.906851068878172,19.90689237060547,21.250051068878175,18.24999237060547,21.250051068878175L15.749992370605469,21.250051068878175C14.64539237060547,21.250051068878175,13.749992370605469,20.354551068878173,13.749992370605469,19.249951068878175L13.749992370605469,16.00005106887817C13.749292370605469,15.033951068878174,12.965992370605468,14.251251068878174,12.000002370605468,14.251251068878174C11.033972370605468,14.251251068878174,10.250662370605468,15.033951068878174,10.249992370605469,16.00005106887817L10.249992370605469,19.249951068878175C10.250002370605468,20.354551068878173,9.354572370605469,21.250051068878175,8.250002370605468,21.250051068878175L5.749992370605469,21.250051068878175C4.093142370605468,21.250051068878175,2.7499923706054688,19.906851068878172,2.7499923706054688,18.250051068878175L2.7499923706054688,10.105991068878174C2.7499294281054687,8.860121068878174,3.330381370605469,7.685361068878174,4.320002370605469,6.928501068878174ZM18.76849237060547,8.119991068878175L12.910992370605468,3.640991068878174C12.373232370605468,3.2298910688781737,11.626772370605469,3.2298910688781737,11.089012370605468,3.640991068878174L5.2315123706054685,8.119991068878175C4.612872370605469,8.593001068878173,4.249992370605469,9.327261068878173,4.249992370605469,10.105991068878174L4.249992370605469,18.250051068878175C4.249992370605469,19.078451068878174,4.921562370605469,19.750051068878175,5.749992370605469,19.750051068878175L8.250002370605468,19.750051068878175C8.526132370605469,19.750051068878175,8.749992370605469,19.526151068878175,8.749992370605469,19.249951068878175L8.749992370605469,16.00005106887817C8.749992370605469,14.205051068878173,10.205072370605468,12.749951068878174,12.000002370605468,12.749951068878174C13.794892370605469,12.749951068878174,15.249992370605469,14.205051068878173,15.249992370605469,16.00005106887817L15.249992370605469,19.249951068878175C15.249992370605469,19.526151068878175,15.47389237060547,19.750051068878175,15.749992370605469,19.750051068878175L18.24999237060547,19.750051068878175C19.078392370605467,19.750051068878175,19.74999237060547,19.078451068878174,19.74999237060547,18.250051068878175L19.74999237060547,10.105991068878174C19.74999237060547,9.327251068878173,19.38709237060547,8.592991068878174,18.76849237060547,8.119991068878175Z" fill="#111111" fill-opacity="1"/></g></g></svg>