<svg xmlns="http://www.w3.org/2000/svg" xmlns:xlink="http://www.w3.org/1999/xlink" fill="none" version="1.1" width="24" height="24" viewBox="0 0 24 24"><defs><clipPath id="master_svg0_15_214"><rect x="0" y="0" width="24" height="24" rx="0"/></clipPath></defs><g clip-path="url(#master_svg0_15_214)"><g><path d="M5.50000786781311,3L18.50000786781311,3C20.15680786781311,3,21.50000786781311,4.34315,21.50000786781311,6L21.50000786781311,16.75C21.50000786781311,18.4069,20.15680786781311,19.75,18.50000786781311,19.75L15.03900786781311,19.75L12.84100786781311,21.749C12.389957867813111,22.1591,11.70882786781311,22.1841,11.22899786781311,21.808L11.15898786781311,21.749L8.96050786781311,19.75L5.50000786781311,19.75C3.8868778678131104,19.7501,2.5624918678131103,18.4745,2.5019998578131104,16.8625L2.5000078678131104,16.75L2.5000078678131104,6C2.5000073909761102,4.34315,3.8431578678131104,3,5.50000786781311,3ZM20.00000786781311,6C20.00000786781311,5.17157,19.32840786781311,4.5,18.50000786781311,4.5L5.50000786781311,4.5C4.67157786781311,4.5,4.00000786781311,5.17157,4.00000786781311,6L4.00000786781311,16.75C4.00000786781311,17.578400000000002,4.67157786781311,18.25,5.50000786781311,18.25L9.05650786781311,18.25C9.36749786781311,18.2499,9.66734786781311,18.3658,9.89748786781311,18.575L11.99999786781311,20.486L14.10300786781311,18.575C14.30670786781311,18.389699999999998,14.566007867813111,18.2768,14.84050786781311,18.253999999999998L14.944007867813111,18.25L18.50000786781311,18.25C19.32840786781311,18.25,20.00000786781311,17.578400000000002,20.00000786781311,16.75L20.00000786781311,6ZM11.99999786781311,7.99999C12.414217867813111,7.99999,12.75000786781311,8.33578,12.75000786781311,8.74999L12.75000786781311,10.75001L14.75000786781311,10.75001C15.16420786781311,10.75001,15.50000786781311,11.08579,15.50000786781311,11.50001C15.50000786781311,11.91422,15.16420786781311,12.25001,14.75000786781311,12.25001L12.75000786781311,12.25001L12.75000786781311,14.25C12.75000786781311,14.6642,12.414217867813111,15,11.99999786781311,15C11.58578786781311,15,11.24999786781311,14.6642,11.24999786781311,14.25L11.24999786781311,12.25001L9.25000786781311,12.25001C8.83579786781311,12.25001,8.50000786781311,11.91422,8.50000786781311,11.50001C8.50000786781311,11.08579,8.83579786781311,10.75001,9.25000786781311,10.75001L11.24999786781311,10.75001L11.24999786781311,8.74999C11.24999786781311,8.33578,11.58578786781311,7.99999,11.99999786781311,7.99999Z" fill="#111925" fill-opacity="1" style="mix-blend-mode:passthrough"/></g></g></svg>