<svg xmlns="http://www.w3.org/2000/svg" xmlns:xlink="http://www.w3.org/1999/xlink" fill="none" version="1.1" width="24" height="24" viewBox="0 0 24 24"><defs><clipPath id="master_svg0_3_26"><rect x="0" y="0" width="24" height="24" rx="0"/></clipPath></defs><g clip-path="url(#master_svg0_3_26)"><g><path d="M16.07350786781311,3.2524921893945313L16.25000786781311,3.2500078678135313C19.56350786781311,3.2500078678135313,22.25000786781311,5.936507629394532,22.25000786781311,9.250007629394531C22.25000786781311,13.74350762939453,19.15150786781311,17.89650762939453,13.066007867813111,21.72400762939453C12.41420786781311,22.133607629394533,11.58536786781311,22.13320762939453,10.93398786781311,21.72300762939453C4.8490078678131106,17.89700762939453,1.7500078678131104,13.74350762939453,1.7500078678131104,9.250007629394531C1.7500078678131104,5.936507629394532,4.436507867813111,3.2500076293945312,7.75000786781311,3.2500076293945312C9.341017867813111,3.2500076293945312,10.82901786781311,3.8744996293945313,11.93150786781311,4.946997629394531L12.00000786781311,5.014987629394531L12.06850786781311,4.946997629394531C13.143807867813111,3.8999796293945312,14.57330786781311,3.2951841293945314,16.07350786781311,3.2524921893945313ZM20.75000786781311,9.250007629394531C20.75040786781311,7.2993876293945315,19.49410786781311,5.570587629394531,17.63870786781311,4.968627629394531C15.783307867813111,4.366677629394531,13.75130786781311,5.028637629394531,12.60650786781311,6.607987629394531C12.30700786781311,7.020187629394531,11.69248786781311,7.020187629394531,11.39298786781311,6.607987629394531C10.24805786781311,5.029097629394531,8.21636786781311,4.367467629394531,6.36123786781311,4.969367629394531C4.506237867813111,5.5710876293945315,3.2500078678131104,7.299497629394531,3.2500078678131104,9.250007629394531C3.2504978678131105,13.135007629394531,6.0404978678131105,16.874007629394534,11.73400786781311,20.45350762939453C11.89700786781311,20.55650762939453,12.10500786781311,20.55650762939453,12.26900786781311,20.454007629394532C17.96000786781311,16.874007629394534,20.75000786781311,13.133997629394532,20.75000786781311,9.250007629394531Z" fill="#111111" fill-opacity="1"/></g></g></svg>