<svg xmlns="http://www.w3.org/2000/svg" xmlns:xlink="http://www.w3.org/1999/xlink" fill="none" version="1.1" width="24" height="24" viewBox="0 0 24 24"><defs><clipPath id="master_svg0_3_54"><rect x="0" y="0" width="24" height="24" rx="0"/></clipPath></defs><g clip-path="url(#master_svg0_3_54)"><g><path d="M21.03000786781311,4.249011781005859C21.33120786781311,4.54074178100586,21.33460786781311,5.022711781005859,21.03770786781311,5.3187817810058595C20.74080786781311,5.614841781005859,20.25890786781311,5.609991781005859,19.96800786781311,5.30801178100586C18.89840786781311,4.2340417810058595,17.62310786781311,3.3869617810058594,16.21850786781311,2.8174917810058595C15.82580786781311,2.6677817810058593,15.63270786781311,2.2246517810058593,15.79050786781311,1.8351237810058594C15.94830786781311,1.4455964810058595,16.39530786781311,1.2617267810058594,16.78150786781311,1.4275076810058593C18.373007867813108,2.072648781005859,19.81800786781311,3.0323017810058595,21.03000786781311,4.249011781005859ZM7.780007867813111,2.8180117810058594C6.37501786781311,3.388011781005859,5.09953786781311,4.235771781005859,4.030007867813111,5.31049178100586C3.73771786781311,5.604031781005859,3.2628028678131105,5.605041781005859,2.96926186781311,5.3127517810058595C2.6757208678131104,5.020461781005859,2.6747078678131104,4.545551781005859,2.9670008678131103,4.2520117810058595C4.1791278678131105,3.0340617810058594,5.624667867813111,2.0733727810058595,7.216987867813111,1.4275073810058594C7.602357867813111,1.2652377810058595,8.04600786781311,1.4494433810058593,8.20310786781311,1.8369497810058593C8.36019786781311,2.2244557810058594,8.17007786781311,2.665591781005859,7.780007867813111,2.8180117810058594L7.780007867813111,2.8180117810058594ZM2.5000078678131104,12.999981781005859C2.5000078678131104,7.753501781005859,6.75348786781311,3.499991781005859,11.99999786781311,3.499991781005859C17.246507867813108,3.499991781005859,21.50000786781311,7.753501781005859,21.50000786781311,12.999981781005859C21.50000786781311,18.24648178100586,17.246507867813108,22.49998178100586,11.99999786781311,22.49998178100586C6.753517867813111,22.49998178100586,2.5000078678131104,18.24648178100586,2.5000078678131104,12.999981781005859ZM11.99999786781311,20.99998178100586C16.418507867813112,20.99998178100586,20.00000786781311,17.41848178100586,20.00000786781311,12.999981781005859C20.00000786781311,8.58152178100586,16.418507867813112,5.00001178100586,11.99999786781311,4.999991781005859C7.58151786781311,4.9999717810058595,4.00000786781311,8.581501781005858,4.00000786781311,12.999981781005859C4.00000786781311,17.41848178100586,7.58151786781311,20.99998178100586,11.99999786781311,20.99998178100586ZM13.08550786781311,9.718501781005859L11.06050786781311,12.249981781005859L14.50000786781311,12.249981781005859C15.10650786781311,12.249981781005859,15.45300786781311,12.92648178100586,15.12500786781311,13.41498178100586L15.08550786781311,13.46848178100586L12.08549786781311,17.21848178100586C11.82424786781311,17.53298178100586,11.35923786781311,17.58028178100586,11.04000786781311,17.324881781005857C10.72076786781311,17.06938178100586,10.66494786781311,16.60538178100586,10.91448786781311,16.28148178100586L12.93900786781311,13.749981781005859L9.499987867813111,13.749981781005859C8.89349786781311,13.749981781005859,8.546997867813111,13.07348178100586,8.87500786781311,12.58498178100586L8.914497867813111,12.531481781005859L11.914497867813111,8.781491781005858C12.17060786781311,8.44913178100586,12.64950786781311,8.39152178100586,12.97720786781311,8.653671781005858C13.30480786781311,8.91582178100586,13.35360786781311,9.39574178100586,13.08550786781311,9.718501781005859Z" fill="#111111" fill-opacity="1"/></g></g></svg>