<svg xmlns="http://www.w3.org/2000/svg" xmlns:xlink="http://www.w3.org/1999/xlink" fill="none" version="1.1" width="36" height="36" viewBox="0 0 36 36"><defs><clipPath id="master_svg0_7_028"><rect x="7" y="7" width="22" height="22" rx="0"/></clipPath></defs><g><g><rect x="0.6499999761581421" y="0.6499999761581421" width="34.700000047683716" height="34.700000047683716" rx="17.350000023841858" fill-opacity="0" stroke-opacity="1" stroke="#111111" fill="none" stroke-width="1.2999999523162842"/></g><g clip-path="url(#master_svg0_7_028)"><g><path d="M19.576700000000002,9.9779683828125C19.889,10.3164473828125,20.0625,10.7603873828125,20.0625,11.2214173828125L20.0625,24.7789173828125C20.0626,25.5071173828125,19.631700000000002,26.1664173828125,18.9646,26.4586173828125C18.29757,26.7507173828125,17.52083,26.6203173828125,16.9857,26.1264173828125L13.27917,22.7045173828125C13.194510000000001,22.626417382812498,13.08357,22.5830173828125,12.96842,22.5830173828125L11.125,22.5830173828125C9.60622,22.5830173828125,8.375,21.3518173828125,8.375,19.8330173828125L8.375,16.1663673828125C8.37499978145,14.6475873828125,9.60622,13.4163673828125,11.125,13.4163673828125L12.96888,13.4163673828125C13.08404,13.4163673828125,13.194980000000001,13.3730073828125,13.279630000000001,13.2949173828125L16.9857,9.8739193828125C17.72967,9.1872323828125,18.889400000000002,9.2336023828125,19.576700000000002,9.9779683828125L19.576700000000002,9.9779683828125ZM18.5243,10.8707973828125C18.347720000000002,10.7221373828125,18.08811,10.728027382812499,17.918419999999998,10.8845473828125L14.21233,14.305547382812499C13.87359,14.6182173828125,13.42964,14.791847382812499,12.96888,14.791847382812499L11.125,14.791847382812499C10.36561,14.791847382812499,9.75,15.4074473828125,9.75,16.1668373828125L9.75,19.833517382812502C9.75,20.5929173828125,10.36561,21.208517382812502,11.125,21.208517382812502L12.96888,21.208517382812502C13.42981,21.2086173828125,13.87377,21.3824173828125,14.21233,21.6952173828125L17.918419999999998,25.1162173828125C18.052210000000002,25.2396173828125,18.24635,25.2722173828125,18.4131,25.1991173828125C18.5798,25.126117382812502,18.6875,24.9613173828125,18.6875,24.7794173828125L18.6875,11.2214173828125C18.6875,11.1062573828125,18.6441,10.9953173828125,18.566000000000003,10.9106673828125L18.5243,10.8707973828125ZM27.5237,18.002467382812497C27.5237,20.214817382812498,26.9311,22.341517382812498,25.8251,24.202817382812498C25.6311,24.5292173828125,25.2092,24.6365173828125,24.8828,24.4425173828125C24.5564,24.2485173828125,24.449,23.8266173828125,24.6431,23.500117382812498C25.6317,21.8371173828125,26.1519,19.937617382812498,26.1487,18.002917382812498C26.1487,15.992667382812499,25.5982,14.0653673828125,24.5725,12.3883473828125C24.3744,12.0643373828125,24.4765,11.6411073828125,24.8005,11.4430273828125C25.1245,11.2449573828125,25.5478,11.3470373828125,25.7458,11.6710473828125C26.9118,13.5770073828125,27.5271,15.7686173828125,27.5237,18.002467382812497L27.5237,18.002467382812497ZM23.9583,18.0001673828125C23.9583,19.1569973828125,23.680999999999997,20.2753173828125,23.157600000000002,21.280017382812503C22.983800000000002,21.6200173828125,22.566200000000002,21.7532173828125,22.227600000000002,21.5767173828125C21.889,21.4001173828125,21.7592,20.981417382812502,21.938499999999998,20.644317382812503C22.3637,19.8279173828125,22.585,18.9206773828125,22.5833,18.0001673828125C22.5833,17.0628673828125,22.3587,16.1590473828125,21.9339,15.3477873828125C21.749499999999998,15.0102873828125,21.8778,14.5871873828125,22.218600000000002,14.408967382812499C22.5594,14.230747382812499,22.9801,14.366737382812499,23.1521,14.7107173828125C23.6832,15.7257673828125,23.9598,16.8545873828125,23.9583,18.0001673828125Z" fill="#111111" fill-opacity="1"/></g></g></g></svg>