<svg xmlns="http://www.w3.org/2000/svg" xmlns:xlink="http://www.w3.org/1999/xlink" fill="none" version="1.1" width="24" height="24" viewBox="0 0 24 24"><defs><clipPath id="master_svg0_7_14"><rect x="0" y="0" width="24" height="24" rx="0"/></clipPath></defs><g clip-path="url(#master_svg0_7_14)"><g><path d="M13.399944776535035,1.50250781L13.500044776535034,1.5C13.984444776535033,1.500043869,14.452444776535033,1.675936,14.817044776535035,1.995L22.809044776535035,8.98751C24.175044776535035,10.18274,24.175044776535035,12.3078,22.809044776535035,13.503L14.817044776535035,20.496C14.226444776535034,21.0127,13.388244776535034,21.1364,12.673644776535035,20.8121C11.958944776535034,20.4878,11.500044776535034,19.7756,11.500044776535034,18.991L11.500044776535034,15.636L11.257004776535034,15.649C8.222504776535034,15.833,6.230014776535034,16.9295,3.792004776535034,19.6745L3.639004776535034,19.8485C2.8765047765350342,20.722,1.4449920765350341,20.1485,1.4560077190350342,19.002C1.5194998765350343,12.951,4.805014776535034,8.02451,11.315504776535034,6.98651L11.499444776535034,6.95801L11.500044776535034,3.49999C11.500044776535034,2.434301,12.335644776535034,1.5557965,13.399944776535035,1.50250781ZM13.829544776535034,3.1234900000000003C13.681844776535034,2.99411,13.472144776535034,2.96311,13.293344776535035,3.04426C13.114544776535034,3.1254,12.999844776535035,3.30366,13.000044776535034,3.49999L13.000044776535034,7.62C13.000244776535034,8.00458,12.709544776535035,8.32703,12.327044776535034,8.36651C6.376504776535034,8.979,3.295004776535034,13.0185,2.9820047765350344,18.276L2.9779947765350343,18.3385L3.157994776535034,18.146C5.874494776535034,15.261,8.319494776535034,14.1625,12.030444776535035,14.1215L12.250544776535035,14.1205C12.664744776535034,14.1205,13.000544776535035,14.4563,13.000544776535035,14.8705L13.000544776535035,18.9905C13.000444776535033,19.1866,13.115144776535034,19.3646,13.293744776535034,19.4457C13.472344776535035,19.5268,13.681844776535034,19.4961,13.829544776535034,19.367L21.820944776535033,12.374C22.503844776535033,11.7764,22.503844776535033,10.71409,21.820944776535033,10.11649L13.829544776535034,3.1234900000000003Z" fill="#111111" fill-opacity="1" style="mix-blend-mode:passthrough"/></g></g></svg>