<svg xmlns="http://www.w3.org/2000/svg" xmlns:xlink="http://www.w3.org/1999/xlink" fill="none" version="1.1" width="22.000003814697266" height="22" viewBox="0 0 22.000003814697266 22"><defs><clipPath id="master_svg0_3_1128"><rect x="22.000003814697266" y="0" width="22" height="22.000003814697266" rx="0"/></clipPath></defs><g transform="matrix(0,1,-1,0,22.000003814697266,-22.000003814697266)" clip-path="url(#master_svg0_3_1128)"><g><path d="M34.37657800094605,4.00000015625L39.149158000946045,13.77833515625C39.37165800094604,14.23453515625,39.290658000946046,14.78083515625,38.94545800094605,15.15283515625C38.59985800094604,15.52443515625,38.06145800094605,15.64443515625,37.59015800094605,15.45633515625L34.30760800094605,14.14383515625C34.038728000946044,14.03633515625,33.85488800094605,13.78463515625,33.834218000946045,13.49583515625L33.287098000946045,5.82006515625L32.738388000946046,13.48633515625C32.717768000946045,13.77503515625,32.53401800094605,14.02703515625,32.265248000946045,14.13453515625L28.956408000946045,15.45633515625C28.485158000946043,15.64423515625,27.946844000946044,15.52323515625,27.601429000946045,15.15163515625C27.256407200946043,14.77973515625,27.175486100946046,14.23433515625,27.397693000946045,13.77833515625L32.17002800094605,4.00000015625C32.37640800094604,3.57857015625,32.804538000946046,3.31152570225,33.27378800094604,3.31103515625C33.74293800094605,3.31163924925,34.17085800094605,3.57866615625,34.37718800094605,4.00000015625L34.37657800094605,4.00000015625Z" fill="#B7BABD" fill-opacity="1"/></g></g></svg>