<svg xmlns="http://www.w3.org/2000/svg" xmlns:xlink="http://www.w3.org/1999/xlink" fill="none" version="1.1" width="750" height="88" viewBox="0 0 750 88"><g><g><g style="opacity:0.3499999940395355;"><rect x="673" y="35.66650390625" width="42" height="20.66666603088379" rx="4.333333492279053" fill-opacity="0" stroke-opacity="0.3499999940395355" stroke="#000000" fill="none" stroke-width="2"/></g><g style="opacity:0.4000000059604645;"><path d="M718,42.00048828125L718,50.00048828125C719.60946,49.32293828125,720.65608,47.74675828125,720.65608,46.00048828125C720.65608,44.25421828125,719.60946,42.67804128125,718,42.00048828125L718,42.00048828125Z" fill="#000000" fill-opacity="1"/></g><g><rect x="676" y="38.66650390625" width="36" height="14.666666984558105" rx="2.6666667461395264" fill="#000000" fill-opacity="1"/></g></g><g><g><path d="M646.6598953125,39.2157828125C651.0916953125,39.2159828125,655.3539953125,40.9188528125,658.5658953125,43.9724528125C658.8077953125,44.2082028125,659.1943953125,44.2052328125,659.4325953125,43.9657828125L661.7445953125,41.6324528125C661.8651953125,41.5110128125,661.9324953125,41.3465028125,661.9314953125,41.1753428125C661.9304953124999,41.0041828125,661.8612953125,40.8404828125,661.7392953125,40.7204528125C653.3090953125,32.6413628125,640.0094553125,32.6413628125,631.5792633125,40.7204528125C631.4571466125,40.8403928125,631.3878587505,41.0040428125,631.3867326915,41.175202812500004C631.3856066325,41.3463728125,631.4527352125,41.5109228125,631.5732633125,41.6324528125L633.8859353125,43.9657828125C634.1239853125,44.2055928125,634.5108753125,44.2085628125,634.7525953125,43.9724528125C637.9649053125,40.9186528125,642.2276953125,39.2157728125,646.6598953125,39.2157828125ZM653.2474953125,49.3462328125C651.4425953125,47.7118328125,649.0944953125,46.8067328125,646.6594953125,46.8069328125C644.2261953125,46.8079328125,641.8799953125,47.7129328125,640.0762053125,49.3462328125C639.8320853125,49.5782328125,639.4475153125,49.5732328125,639.2095453125,49.3349328125L636.9008753125,47.0016328125C636.7790053125,46.8794328125,636.7112853125,46.7133328125,636.7129153125,46.540732812499996C636.7145453125,46.3682328125,636.7853853125,46.2035328125,636.9095453125,46.0836328125C642.4058953125,40.9708328125,650.9177953125,40.9708328125,656.4141953124999,46.0836328125C656.5382953125,46.2035328125,656.6090953125,46.3681328125,656.6108953125,46.5406328125C656.6125953125,46.7131328125,656.5451953125,46.8792328125,656.4234953125,47.0016328125L654.1141953125,49.3349328125C653.8761953125,49.5732328125,653.4916953125,49.5782328125,653.2474953125,49.3462328125ZM651.0976953125,52.3760328125C651.2211953125,52.2548328125,651.2891953124999,52.0880328125,651.2856953125,51.9150328125C651.2820953125,51.7420328125,651.2073953125,51.5781328125,651.0789953125,51.4620328125C648.5278953125,49.3043328125,644.7914953125,49.3043328125,642.2402953125,51.4620328125C642.1118953125,51.5780328125,642.0369953125,51.741932812499996,642.0332953125,51.9149328125C642.0296953125,52.0879328125,642.0975953125,52.254732812499995,642.2209953125,52.3760328125L646.2162953125,56.407432812500005C646.3333953125,56.5259328125,646.4930953125,56.5925328125,646.6596953125,56.5925328125C646.8262953125,56.5925328125,646.9858953125,56.5259328125,647.1029953125,56.407432812500005L651.0976953125,52.3760328125Z" fill-rule="evenodd" fill="#000000" fill-opacity="1"/></g></g><g><g><path d="M617.3320078125,35.3330078125L619.3320078125,35.3330078125C620.4366078125,35.3330078125,621.3320078125,36.2284388125,621.3320078125,37.3330078125L621.3320078125,54.6663078125C621.3320078125,55.7709078125,620.4366078125,56.6663078125,619.3320078125,56.6663078125L617.3320078125,56.6663078125C616.2275078125,56.6663078125,615.3320078125,55.7709078125,615.3320078125,54.6663078125L615.3320078125,37.3330078125C615.3320078125,36.2284388125,616.2275078125,35.3330078125,617.3320078125,35.3330078125ZM608.0000078125,39.9999978125L610.0000078125,39.9999978125C611.1046078125,39.9999978125,612.0000078125,40.8954278125,612.0000078125,41.9999978125L612.0000078125,54.6667078125C612.0000078125,55.771207812499995,611.1046078125,56.6667078125,610.0000078125,56.6667078125L608.0000078125,56.6667078125C606.8954078125,56.6667078125,606.0000078125,55.771207812499995,606.0000078125,54.6667078125L606.0000078125,41.9999978125C606.0000078125,40.8954278125,606.8954078125,39.9999978125,608.0000078125,39.9999978125ZM598.6641078125,44.6660178125L600.6641078125,44.6660178125C601.7686078125,44.6660178125,602.6641078125,45.5614078125,602.6641078125,46.6660078125L602.6641078125,54.6660078125C602.6641078125,55.7706078125,601.7686078125,56.6660078125,600.6641078125,56.6660078125L598.6641078125,56.6660078125C597.5595078125,56.6660078125,596.6640578125,55.7706078125,596.6640578125,54.6660078125L596.6640578125,46.6660078125C596.6640578125,45.5614078125,597.5595078125,44.6660178125,598.6641078125,44.6660178125ZM589.3320278125,48.6660078125L591.3320278125,48.6660078125C592.4365978125,48.6660078125,593.3320278125,49.5614078125,593.3320278125,50.6660078125L593.3320278125,54.6660078125C593.3320278125,55.7706078125,592.4365978125,56.6660078125,591.3320278125,56.6660078125L589.3320278125,56.6660078125C588.2274618125,56.6660078125,587.3320312505,55.7706078125,587.3320312505,54.6660078125L587.3320312505,50.6660078125C587.3320312505,49.5614078125,588.2274618125,48.6660078125,589.3320278125,48.6660078125Z" fill-rule="evenodd" fill="#000000" fill-opacity="1"/></g></g><g></g><g><g><g><path d="M77.21185,36.9346Q75.08011,36.9346,73.41684,37.81366Q71.75378,38.69272,70.79483,40.231700000000004Q69.83588,41.7704,69.83588,43.7594L69.83588,43.7868Q69.83588,45.6425,70.66431,47.1018Q71.49295,48.561,72.95456,49.395700000000005Q74.41638,50.2303,76.30673,50.2303Q77.64658,50.2303,78.7299,49.810500000000005Q79.8131,49.390699999999995,80.5773,48.6751Q81.3414,47.9595,81.7336,47.0584L82.025,47.0584L82.025,43.713300000000004L81.1961,43.713300000000004L81.1961,43.7312Q81.1961,44.8288,80.6728,45.6833Q80.14959999999999,46.537800000000004,79.2496,47.0227Q78.3498,47.507400000000004,77.21548,47.507400000000004Q76.09418,47.507400000000004,75.20807,47.018Q74.32196,46.528400000000005,73.81268,45.6626Q73.30341,44.7966,73.30341,43.6759L73.30341,43.6486Q73.30341,42.5732,73.8334,41.7044Q74.36362,40.8356,75.26126,40.3252Q76.15891,39.81488,77.2565,39.81488Q78.3678,39.81488,79.2607,40.3346Q80.1539,40.8542,80.6749,41.7345Q81.1961,42.6148,81.1961,43.713300000000004L81.8056,46.9794Q81.8056,47.1595,81.8035,47.3348Q81.8013,47.5102,81.7877,47.6901Q81.7199,49.5467,81.22540000000001,51.0871Q80.7309,52.6276,79.7371,53.546800000000005Q78.7433,54.466,77.14883,54.466Q76.267,54.466,75.57315,54.1881Q74.87952,53.9099,74.39716,53.4062Q73.91501,52.9023,73.64883,52.234300000000005L73.59842,52.1055L70.10077,52.1055L70.13303,52.2529Q70.44385,53.7448,71.40665,54.889399999999995Q72.36966,56.034,73.84003,56.685500000000005Q75.31061,57.3369,77.13004,57.3369Q79.6495,57.3369,81.4471,56.094899999999996Q83.245,54.852900000000005,84.21039999999999,52.5184Q85.1759,50.1837,85.1759,46.9176L85.1759,46.890299999999996Q85.1759,44.2939,84.5502,42.414Q83.9247,40.5341,82.8227,39.31863Q81.7206,38.10291,80.284,37.518860000000004Q78.8476,36.9346,77.21185,36.9346ZM89.5712,54.1276Q90.4007,54.1276,90.973,53.5553Q91.5455,52.9828,91.5455,52.1533Q91.5455,51.3238,90.973,50.7515Q90.4007,50.179,89.5712,50.179Q88.74170000000001,50.179,88.1694,50.7515Q87.5971,51.3238,87.5971,52.1533Q87.5971,52.9828,88.1694,53.5553Q88.74170000000001,54.1276,89.5712,54.1276ZM89.5712,44.0867Q90.4007,44.0867,90.973,43.5144Q91.5455,42.941900000000004,91.5455,42.1124Q91.5455,41.2831,90.973,40.7108Q90.4007,40.1383,89.5712,40.1383Q88.74170000000001,40.1383,88.1694,40.7108Q87.5971,41.2831,87.5971,42.1124Q87.5971,42.941900000000004,88.1694,43.5144Q88.74170000000001,44.0867,89.5712,44.0867ZM103.67609999999999,57L107.0334,57L107.0334,53.205799999999996L109.7056,53.205799999999996L109.7056,50.3226L107.0334,50.3226L107.0334,37.27148L102.01140000000001,37.27148Q101.1977,38.56369,100.3771,39.85803Q99.5566,41.1524,98.7406,42.4469Q97.9247,43.7413,97.10419999999999,45.033500000000004Q96.2837,46.3257,95.4632,47.620000000000005Q94.6426,48.9144,93.8289,50.2066L93.8289,53.205799999999996L103.67609999999999,53.205799999999996L103.67609999999999,57ZM96.9942,50.3963L96.9942,50.307Q97.6588,49.2675,98.3212,48.2327Q98.9839,47.1977,99.6532,46.156099999999995Q100.3227,45.1144,100.9851,44.0797Q101.6476,43.0446,102.31,42.0099Q102.9727,40.9751,103.6372,39.93536L103.72800000000001,39.93536L103.72800000000001,50.3963L96.9942,50.3963ZM116.9419,57L120.4032,57L120.4032,37.27148L116.9233,37.27148L111.7684,40.8977L111.7684,44.1256L116.8699,40.6275L116.9419,40.6275L116.9419,57Z" fill="#000000" fill-opacity="1"/></g></g></g></g></svg>